<svg xmlns="http://www.w3.org/2000/svg" width="1024" height="1024" viewBox="0 0 1024 1024">
  <defs>
    <linearGradient id="bg" x1="123" y1="0" x2="901" y2="1024" gradientUnits="userSpaceOnUse">
      <stop offset="0" stop-color="#60a5fa"></stop><stop offset="1" stop-color="#2563eb"></stop>
    </linearGradient>
    <linearGradient id="sheen" x1="0" y1="0" x2="0" y2="1024" gradientUnits="userSpaceOnUse">
      <stop offset="0" stop-color="#ffffff" stop-opacity="0.16"></stop>
      <stop offset="0.32" stop-color="#ffffff" stop-opacity="0"></stop>
      <stop offset="1" stop-color="#000000" stop-opacity="0.06"></stop>
    </linearGradient>
    <clipPath id="sq"><rect width="1024" height="1024" rx="229" ry="229"></rect></clipPath>
  </defs>
  <g clip-path="url(#sq)">
    <rect width="1024" height="1024" fill="url(#bg)"></rect>
    <rect width="1024" height="1024" fill="url(#sheen)"></rect>
    <g transform="translate(29.1 29.1) scale(20.122)">
      <g transform="translate(-3.9 0)"><rect x="12.5" y="8.5" width="21" height="26" rx="2.6" fill="#dbe2ee"></rect></g>
      <g transform="translate(-1.8 0)">
        <rect x="14.2" y="10.8" width="21" height="26" rx="2.6" fill="#eef1f7"></rect>
        <circle cx="19.4" cy="16" r="1.5" fill="#9db4e6"></circle>
        <path d="M16.6 20.2 L19.5 17 L21.6 19.1 L23.5 16.8 L25.8 20.2 Z" fill="#bcccec"></path>
      </g>
      <g transform="translate(1.4 0)">
        <rect x="16" y="13.5" width="21" height="26" rx="2.6" fill="#fff"></rect>
        <circle cx="20.6" cy="19.4" r="1.95" fill="#e8a05a"></circle>
        <rect x="23.6" y="18.4" width="9.2" height="2" rx="1" fill="#aeb6c4"></rect>
        <rect x="19.6" y="23.6" width="13.2" height="2" rx="1" fill="#cdd3dc"></rect>
        <rect x="19.6" y="27.6" width="13.2" height="2" rx="1" fill="#cdd3dc"></rect>
        <rect x="19.6" y="31.6" width="8" height="2" rx="1" fill="#cdd3dc"></rect>
      </g>
    </g>
  </g>
</svg>
